<?xml version="1.0" encoding="iso-8859-1"?>
<!-- Generator: Adobe Illustrator 19.0.0, SVG Export Plug-In . SVG Version: 6.00 Build 0)  -->
<svg version="1.1" id="Capa_1" xmlns="http://www.w3.org/2000/svg" xmlns:xlink="http://www.w3.org/1999/xlink" x="0px" y="0px"
	 viewBox="0 0 511.634 511.634" style="enable-background:new 0 0 511.634 511.634;" xml:space="preserve">
<g>
	<path style="fill:#E6E7E8;" d="M259.973,58.61L225.261,188.78H90.753c-11.982,0-21.695-9.713-21.695-21.695
		c0-11.982,9.713-21.695,21.695-21.695h73.763c11.982,0,21.695-9.713,21.695-21.695S176.497,102,164.515,102H30.007
		c-11.982,0-21.695-9.713-21.695-21.695S18.025,58.61,30.007,58.61H259.973z"/>
	<polygon style="fill:#ff5722;" points="511.287,10.447 511.287,271.307 503.303,273.216 184.908,349.235 184.822,349.235
		168.767,353.054 172.586,336.913 248.605,18.431 250.514,10.447 	"/>
	<g>
		<path style="fill:#ff916f;" d="M511.287,10.447V22.77l-97.714,97.714l-12.236,12.236L184.822,349.235l-28.898,28.898
			c-10.305,9.806-26.49,9.806-36.795,0l-9.199-9.199c-3.286-3.286-8.076-4.57-12.566-3.367c-4.489,1.203-7.996,4.709-9.199,9.199
			c-1.203,4.489,0.081,9.279,3.367,12.566l36.795,36.795c9.859,9.875,13.701,24.259,10.079,37.734
			c-3.622,13.475-14.158,23.995-27.639,27.596s-27.859-0.264-37.718-10.138l-12.236-12.236c-5.152-4.903-13.245-4.903-18.397,0
			L14.82,494.678c-3.383,3.38-8.862,3.389-12.255,0.019s-3.424-8.849-0.067-12.255l27.683-27.596
			c11.959-11.542,30.91-11.542,42.869,0l12.323,12.236c8.464,8.454,22.175,8.46,30.646,0.013s8.504-22.158,0.074-30.646
			l-36.881-36.881c-11.81-11.871-11.786-31.061,0.055-42.901c11.841-11.841,31.03-11.865,42.901-0.055l9.199,9.199
			c3.41,3.385,8.912,3.385,12.323,0l18.918-18.918l5.554-5.554l4.426-4.425l216.515-216.516l12.236-12.236l97.714-97.714H511.287z"
			/>
		<path style="fill:#ff916f;" d="M511.287,249.439v21.868l-7.984,1.909v-0.087c-17.877-41.394-54.845-92.247-101.966-140.409
			c-1.996-2.083-3.992-4.079-6.075-6.161c-2.083-2.083-4.079-4.079-6.161-6.075v-0.087
			c-48.163-47.121-99.016-84.089-140.496-101.966l1.909-7.984h21.695c47.454,26.29,90.932,59.19,129.128,97.714
			c2.083,1.996,4.165,3.992,6.161,6.075c2.083,2.083,4.165,4.165,6.075,6.248C452.09,158.622,484.99,202.041,511.287,249.439z"/>
	</g>
	<path style="fill:#E6E7E8;" d="M511.634,479.492c0.017,5.759-2.263,11.288-6.335,15.36c-4.072,4.072-9.601,6.352-15.36,6.335
		H186.21c-11.982,0-21.695-9.713-21.695-21.695c0-11.982,9.713-21.695,21.695-21.695h169.22c11.982,0,21.695-9.713,21.695-21.695
		c0-11.982-9.713-21.695-21.695-21.695h-91.119c-11.982,0-21.695-9.713-21.695-21.695c0-11.982,9.713-21.695,21.695-21.695h225.627
		c11.982,0,21.695,9.713,21.695,21.695c0,11.982-9.713,21.695-21.695,21.695h-34.712c-11.982,0-21.695,9.713-21.695,21.695
		c0,11.982,9.713,21.695,21.695,21.695h34.712C501.919,457.801,511.63,467.512,511.634,479.492z"/>
</g>
<g>
</g>
<g>
</g>
<g>
</g>
<g>
</g>
<g>
</g>
<g>
</g>
<g>
</g>
<g>
</g>
<g>
</g>
<g>
</g>
<g>
</g>
<g>
</g>
<g>
</g>
<g>
</g>
<g>
</g>
</svg>
