<?xml version="1.0" encoding="iso-8859-1"?>
<!-- Generator: Adobe Illustrator 19.0.0, SVG Export Plug-In . SVG Version: 6.00 Build 0)  -->
<svg version="1.1" id="Capa_1" xmlns="http://www.w3.org/2000/svg" xmlns:xlink="http://www.w3.org/1999/xlink" x="0px" y="0px"
	 viewBox="0 0 480 480" style="enable-background:new 0 0 480 480;" xml:space="preserve">
<g>
	<g>
		<polygon points="16,464 16,0 0,0 0,480 480,480 480,464 		"/>
	</g>
</g>
<g>
	<g>
		<path d="M72,312v-24H56v24H40v80h16v24h16v-24h16v-80H72z M72,376H56v-48h16V376z"/>
	</g>
</g>
<g>
	<g>
		<path d="M144,216v-24h-16v24h-16v112h16v24h16v-24h16V216H144z M144,312h-16v-80h16V312z"/>
	</g>
</g>
<g>
	<g>
		<path d="M360,232v-24h-16v24h-16v112h16v24h16v-24h16V232H360z M360,328h-16v-80h16V328z"/>
	</g>
</g>
<g>
	<g>
		<path d="M432,136v-24h-16v24h-16v112h16v24h16v-24h16V136H432z M432,232h-16v-80h16V232z"/>
	</g>
</g>
<g>
	<g>
		<path d="M288,184v-24h-16v24h-16v80h16v24h16v-24h16v-80H288z M288,248h-16v-48h16V248z"/>
	</g>
</g>
<g>
	<g>
		<path d="M216,72V48h-16v24h-16v160h16v24h16v-24h16V72H216z M216,216h-16V88h16V216z"/>
	</g>
</g>
<g>
</g>
<g>
</g>
<g>
</g>
<g>
</g>
<g>
</g>
<g>
</g>
<g>
</g>
<g>
</g>
<g>
</g>
<g>
</g>
<g>
</g>
<g>
</g>
<g>
</g>
<g>
</g>
<g>
</g>
</svg>
